# xmcd CD database file
#
# Track frame offsets:
#	150
#	11302
#	23543
#	38314
#	49600
#	63655
#	76396
#	87576
#	100449
#	112292
#	127260
#	137251
#	149642
#	172516
#	182810
#	199926
#	211254
#	231314
#	246254
#	263873
#	276638
#	296130
#
# Disc length: 4114 seconds
#
# Revision: 0
# Processed by: cddbd v1.5.2PL0 Copyright (c) Steve Scherf et al.
# Submitted via: CDex 1.70beta2
#
DISCID=49101016
DTITLE=Johnny Smith - Spring Is Here
DYEAR=2006
DGENRE=Jazz
TTITLE0=Where or When
TTITLE1=Vilia
TTITLE2=Moonlight In Vermont
TTITLE3=Jaguar
TTITLE4=What's New
TTITLE5=Walk Don't Run
TTITLE6=Lover Man
TTITLE7=But Beautiful
TTITLE8=Swinging On A Star
TTITLE9=Nancy
TTITLE10=I Thought About You
TTITLE11=Polka Dots And Moonbeams
TTITLE12=Django
TTITLE13=Wait Till You See Her
TTITLE14=0500 Blues
TTITLE15=More Bass
TTITLE16=Uno Poco Loco
TTITLE17=Easy Living
TTITLE18=Old Girl
TTITLE19=Little Girl Blue
TTITLE20=Tired Blood
TTITLE21=Spring Is Here
EXTD=YEAR: 2006
EXTT0=
EXTT1=
EXTT2=
EXTT3=
EXTT4=
EXTT5=
EXTT6=
EXTT7=
EXTT8=
EXTT9=
EXTT10=
EXTT11=
EXTT12=
EXTT13=
EXTT14=
EXTT15=
EXTT16=
EXTT17=
EXTT18=
EXTT19=
EXTT20=
EXTT21=
PLAYORDER=
